# xmcd CD database file
#
# Track frame offsets:
#	150
#	15694
#	46230
#	58967
#	77868
#	96780
#	117393
#	136785
#	150407
#	165962
#
# Disc length: 2533 seconds
#
# Revision: 0
# Processed by: cddbd v1.5.2PL0 Copyright (c) Steve Scherf et al.
# Submitted via: CDex 1.70beta2
#
DISCID=7409e30a
DTITLE=(various artists) - vanguard visionaries series - sampler
DYEAR=1900
DGENRE=Blues
TTITLE0=ramblin' jack elliott - black snake moan
TTITLE1=big mama thornton - rock me baby
TTITLE2=buddy guy - 24 hours of the day
TTITLE3=skip james - washington dc hospital center blue
TTITLE4=sandy bull - little maggie
TTITLE5=mississippi john hurt - make me a pallet on your floor
TTITLE6=doc watson - rising sun blues
TTITLE7=jim kweskin - eight more miles to louisville
TTITLE8=odetta - midnight special
TTITLE9=peter case - lakes of ponchartrain
EXTD=
EXTT0=
EXTT1=
EXTT2=
EXTT3=
EXTT4=
EXTT5=
EXTT6=
EXTT7=
EXTT8=
EXTT9=
PLAYORDER=
